<svg id="Layer_1" data-name="Layer 1" xmlns="http://www.w3.org/2000/svg" viewBox="0 0 512 512"><title>magnifier</title><path d="M239.1,97.69c0,.14-10.3,4.29,7.61,2.19l14.58.1q5.39,1.6,10.81,3.64l10.43-2c-.51-.05,2.06-3.14-2.11-25.6-2.72-10.81-8-28.16-25.9-45.17C237,13.92,207,.49,169.31.28c.08.28-15.26-1.93-40.11,2.76C104.77,7.82,69.52,19.9,39.51,51.13a147.83,147.83,0,0,0-16.67,21.3A140.64,140.64,0,0,0,.22,141c-1.65,30.39,5.9,63.67,23.6,94.73,16.28,30.11,46.79,63.25,89.36,72.9,42.13,9.78,83-3.8,113.32-22.82,30.74-19.51,54-45.3,68.69-72.49,14.79-27,19.89-56.64,15.31-79.32-4.3-22.82-15.16-35.8-19.14-40-1.08-.7,20.21,20.59,19.29,59.94-.82,38.47-24.56,81.46-59.4,111.95-34.21,31-83.13,50.35-125.19,44.4-42.41-5.52-65-29.76-68.58-33.49,0-.81,16.41,18.63,52.28,28.58,36,10.57,84.88-.69,120.56-26.79,36.39-25.48,63.62-63.41,72.23-99.63,9.79-37-5.45-65.94-10-70.23-.74-.51,14,19.87,10.2,53.08-3.21,32.64-24.7,70.55-56.44,98-31.2,27.88-74.62,45.44-111.75,42C97,298.87,74.91,278.23,70.94,272.75c0-.65,14.36,14.26,43.48,21.41,28.95,7.84,69.38.07,101.07-21,32.2-20.4,57.27-51.71,68.32-81,11.86-29.47,6.5-54.55,2.42-61.41a76.27,76.27,0,0,1,3,27.39c-.77,14.93-7,30.82-10.55,36.82a119,119,0,0,0,6.48-23.45c-3.1,12.53-8.6,24.43-15.36,35.5a168.32,168.32,0,0,1-11.95,19.23,148.26,148.26,0,0,0,15.25-27.13c6.49-14.5,8.47-30.32,7.5-32.45,0,0,2-6.27,1.38.16-1.72,5.35-1.74,29-39.75,68-.24-.39-9.69,13.19-35.34,29.34-12.84,7.71-30.08,16-51.91,18.78-21.53,3-48.46-1.35-70.79-19.15C62.07,246.38,44.81,218,36.43,185.39S33.26,113.47,58.65,85.25C83.22,57,123.2,39.73,163.53,39.68c20,.05,40.33,4.92,54.63,15.43C232.64,65.59,239.17,80.27,239.1,97.69Z" fill="#231f20"/><path d="M227.47,250.11s3-3.69-2.59,1.94l-4.62,4.35-3.64,2.93-3.16,3.37s0,1.85,8.25,13.85a35.37,35.37,0,0,0,7.67,11.41S270,326.66,275,327.67c0,0-27.69-22.07-28.36-24.54,0,0,26.1,21.48,29.71,21.53,0,0-25.72-20.44-25.49-24.76,0,0,23.67,18.82,28.51,19.1,0,0-5-3.15-5.8-4.54l2.58,1.23-3.15-3-2.3-1.23s6.34,3.21,7.47,2.76c0,0,1.24,3.11-7.05-5.87C271.1,308.38,245.16,293.46,227.47,250.11Z" fill="#231f20"/><path d="M327.22,257.72s3.92-5.92-4.31,2.37l-7.07,6.21L310,270.14l-4.55,5.12s1.25,4,27.89,36.3a190.53,190.53,0,0,0,24.86,30.5s116.47,114.08,128,119.83c0,0-76.32-68.26-79.53-74.14,0,0,72.4,65.82,80.34,68.53,0,0-70.83-63.29-73.4-72.62,0,0,65.19,58.24,76,62.37,0,0-13.15-10.54-15.9-14.1l6.52,4.53-9-8.75-5.89-4.38s16.2,11.63,18.34,11.42c0,0,4.92,7.77-19.6-17.9C464.08,416.85,396.64,365.48,327.22,257.72Z" fill="#231f20"/><path d="M283.56,311.11s4.25-6.18-4.47,2.62l-7.43,6.63-6.13,4.16-4.84,5.39s1.09,4,26.6,35.48a168.7,168.7,0,0,0,23.81,29.72S423.92,505.3,435.37,510.6c0,0-74.21-65.62-77.21-71.44,0,0,70.37,63.37,78.29,65.72,0,0-68.88-60.83-71.06-70.18,0,0,63.4,56,74.17,59.69,0,0-12.86-10.07-15.48-13.54l6.4,4.27-8.74-8.47L416,472.49s15.88,11,18.05,10.72c0,0,4.64,7.64-19-17.23C415,466,349,417.07,283.56,311.11Z" fill="#231f20"/><path d="M335.84,272.68s3.65,3-2-2.59l-4.36-4.61-3-3.59-3.36-3.19s-1.81,0-13.34,7.76a32,32,0,0,0-10.93,7.19s-36.83,38.76-37.71,43.56c0,0,20.89-26.49,23.28-27.1,0,0-20.36,25-20.32,28.49,0,0,19.35-24.66,23.59-24.31,0,0-17.81,22.66-18,27.38,0,0,3-4.78,4.3-5.55l-1.14,2.49,2.82-3,1.17-2.21s-3,6.14-2.53,7.24c0,0-3,1.13,5.55-6.73C280,313.88,293.92,288.91,335.84,272.68Z" fill="#231f20"/><path d="M510.82,460.15s3.67,3-1.94-2.6l-4.35-4.61-2.94-3.63-3.36-3.16s-1.84,0-13.86,8.25A35.5,35.5,0,0,0,473,462s-38.72,40.65-39.74,45.59c0,0,22.07-27.67,24.53-28.34,0,0-21.49,26.09-21.53,29.67,0,0,20.44-25.7,24.77-25.5,0,0-18.82,23.7-19.12,28.53,0,0,3.17-5,4.54-5.79l-1.21,2.59,3-3.16,1.24-2.28s-3.23,6.34-2.76,7.47c0,0-3.14,1.23,5.87-7.09C452.52,503.75,467.46,477.81,510.82,460.15Z" fill="#231f20"/><path d="M274,209.71s3-3.66-2.58,1.95L266.8,216l-3.62,2.94L260,222.32s-.08,1.81,7.73,13.35a32.33,32.33,0,0,0,7.19,10.93s38.78,36.83,43.57,37.69c0,0-26.5-20.88-27.1-23.26,0,0,25,20.35,28.49,20.3,0,0-24.62-19.34-24.31-23.58,0,0,22.67,17.81,27.38,18,0,0-4.78-3-5.55-4.27l2.51,1.13-3-2.84-2.21-1.14s6.12,3,7.23,2.52c0,0,1.14,3-6.74-5.55C315.19,265.56,290.22,251.59,274,209.71Z" fill="#231f20"/></svg>